<mxfile modified="2022-06-21T16:47:20.697Z" host="app.diagrams.net" agent="5.0 (Windows NT 10.0; Win64; x64) AppleWebKit/537.36 (KHTML, like Gecko) Chrome/102.0.0.0 Safari/537.36" etag="sJtr75kgkbJG1H-BHvgO" version="20.0.1" type="github">
  <diagram id="f106602c-feb2-e66a-4537-3a34d633f6aa" name="Page-1">
    <mxGraphModel dx="2842" dy="934" grid="1" gridSize="10" guides="1" tooltips="1" connect="1" arrows="1" fold="1" page="1" pageScale="1" pageWidth="1169" pageHeight="827" background="none" math="0" shadow="0">
      <root>
        <mxCell id="0" />
        <mxCell id="1" parent="0" />
        <mxCell id="14" value="&lt;b&gt;csm&lt;/b&gt;" style="shadow=1;fontSize=14;align=left;spacing=10;9E9E9E;verticalAlign=top;spacingTop=-4;fontStyle=0;spacingLeft=40;html=1;" parent="1" vertex="1">
          <mxGeometry x="350" y="90" width="1370" height="850" as="geometry" />
        </mxCell>
        <mxCell id="15" value="" style="shape=mxgraph.gcp2.google_cloud_platform;fillColor=#F6F6F6;strokeColor=none;shadow=0;gradientColor=none;" parent="14" vertex="1">
          <mxGeometry width="23" height="20" relative="1" as="geometry">
            <mxPoint x="20" y="10" as="offset" />
          </mxGeometry>
        </mxCell>
        <mxCell id="TnzbvpmYRHqeSD8uyRUV-694" value="&lt;b&gt;Vadim Service&lt;/b&gt;" style="fillColor=#d5e8d4;strokeColor=#82b366;shadow=0;fontSize=14;align=left;spacing=10;9E9E9E;verticalAlign=top;spacingTop=-4;fontStyle=0;spacingLeft=40;html=1;" vertex="1" parent="14">
          <mxGeometry x="870" y="239.74" width="450" height="107.36" as="geometry" />
        </mxCell>
        <mxCell id="TnzbvpmYRHqeSD8uyRUV-697" value="" style="strokeColor=#dddddd;shadow=1;strokeWidth=1;rounded=1;absoluteArcSize=1;arcSize=2;" vertex="1" parent="14">
          <mxGeometry x="1170.0012209563113" y="275.5265610438024" width="143.38686044077633" height="53.68126747437092" as="geometry" />
        </mxCell>
        <mxCell id="TnzbvpmYRHqeSD8uyRUV-698" value="&lt;font color=&quot;#000000&quot;&gt;MS_SQL&lt;/font&gt;&lt;br&gt;CSM DBs" style="editableCssRules=.*;html=1;fontColor=#999999;shape=image;verticalLabelPosition=middle;labelBackgroundColor=#ffffff;verticalAlign=middle;labelPosition=right;align=left;spacingLeft=20;part=1;points=[];imageAspect=0;image=data:image/svg+xml,PHN2ZyB4bWxucz0iaHR0cDovL3d3dy53My5vcmcvMjAwMC9zdmciIHhtbG5zOnY9Imh0dHBzOi8vdmVjdGEuaW8vbmFubyIgd2lkdGg9IjE4LjI3OTk5ODc3OTI5Njg3NSIgaGVpZ2h0PSIyMCIgdmlld0JveD0iMS4yNDYyOTA4MDM4OTEyNzAxZS04IDAgMTguMjc5OTk4Nzc5Mjk2ODc1IDIwIj4mI3hhOwk8c3R5bGUgdHlwZT0idGV4dC9jc3MiPiYjeGE7CS5zdDB7ZmlsbDojNjY5ZGY2O2ZpbGwtcnVsZTpldmVub2RkfSYjeGE7CS5zdDF7ZmlsbDojNDI4NWY0O30mI3hhOwkuc3Qye2ZpbGwtcnVsZTpldmVub2RkfSYjeGE7CTwvc3R5bGU+JiN4YTsJPHBhdGggY2xhc3M9InN0MCIgZD0iTTcuNjMgOWEuOTEuOTEgMCAxIDEtLjY0My4yNjdBLjkxLjkxIDAgMCAxIDcuNjMgOXptMC0uOGExLjcxIDEuNzEgMCAxIDAgMS43IDEuNzEgMS43IDEuNyAwIDAgMC0xLjctMS43MXpNMS43MiA5YS45MS45MSAwIDEgMS0uNjQzLjI2N0EuOTEuOTEgMCAwIDEgMS43MiA5em0wLS44YTEuNzEgMS43MSAwIDEgMCAxLjcgMS43MSAxLjcgMS43IDAgMCAwLTEuNy0xLjcxem0zLjA0IDYuMTFhLjkxLjkxIDAgMSAxIDAgMS44Mi45MS45MSAwIDEgMSAwLTEuODJ6bTAtLjc5YTEuNzEgMS43MSAwIDEgMCAxLjIuNSAxLjcgMS43IDAgMCAwLTEuMi0uNXptMC05LjczYS45MS45MSAwIDAgMS0uMDQgMS44MTkuOTEuOTEgMCAwIDEtLjktLjkwOS45Mi45MiAwIDAgMSAuOTQtLjkxem0wLS44YTEuNzEgMS43MSAwIDEgMCAxLjIuNUExLjcgMS43IDAgMCAwIDQuNzYgM3oiLz4mI3hhOwk8ZyBjbGFzcz0ic3QxIj4mI3hhOwkJPHBhdGggZD0iTTcuODEgMGgxLjY4djIwSDcuODF6Ii8+JiN4YTsJCTxwYXRoIGNsYXNzPSJzdDIiIGQ9Ik0xMy40IDIuODdIOC44OWEuMzcuMzcgMCAwIDAtLjMuNHYyLjgyYS4zNi4zNiAwIDAgMCAuMy4zOWg0LjUxYS4zNi4zNiAwIDAgMCAuMzEtLjM5VjMuMjhhLjM3LjM3IDAgMCAwLS4zMS0uNDF6bTQuMzIgNS4yOUg5LjRjLS4zMSAwLS41Ni4xOC0uNTYuMzl2Mi44MmMwIC4yMi4yNS40LjU2LjRoOC4zMmMuMzEgMCAuNTYtLjE5LjU2LS40VjguNTVjMC0uMjItLjI1LS4zOS0uNTYtLjM5em0tNS45MSA1LjI4SDguMjhjLS4xMyAwLS4yMy4xOC0uMjMuMzl2Mi44MmMwIC4yMi4xLjM5LjIzLjM5aDMuNTNjLjEzIDAgLjI0LS4xOC4yNC0uMzl2LTIuODJjLS4wMS0uMjItLjExLS4zOS0uMjQtLjM5eiIvPiYjeGE7CTwvZz4mI3hhOzwvc3ZnPg==;shadow=1;" vertex="1" parent="TnzbvpmYRHqeSD8uyRUV-697">
          <mxGeometry width="30" height="28" relative="1" as="geometry">
            <mxPoint x="15" y="16" as="offset" />
          </mxGeometry>
        </mxCell>
        <mxCell id="TnzbvpmYRHqeSD8uyRUV-703" style="edgeStyle=none;rounded=0;orthogonalLoop=1;jettySize=auto;html=1;exitX=1;exitY=0.5;exitDx=0;exitDy=0;entryX=0;entryY=0.5;entryDx=0;entryDy=0;dashed=1;fontSize=9;fontColor=#808080;startArrow=classicThin;startFill=1;endArrow=classicThin;endFill=1;strokeColor=#336600;strokeWidth=1;" edge="1" parent="14" source="TnzbvpmYRHqeSD8uyRUV-701" target="TnzbvpmYRHqeSD8uyRUV-697">
          <mxGeometry relative="1" as="geometry" />
        </mxCell>
        <mxCell id="TnzbvpmYRHqeSD8uyRUV-704" value="driver: ms" style="edgeLabel;html=1;align=center;verticalAlign=middle;resizable=0;points=[];fontSize=8;fontColor=#808080;" vertex="1" connectable="0" parent="TnzbvpmYRHqeSD8uyRUV-703">
          <mxGeometry x="0.2657" relative="1" as="geometry">
            <mxPoint x="-1" y="-13" as="offset" />
          </mxGeometry>
        </mxCell>
        <mxCell id="TnzbvpmYRHqeSD8uyRUV-701" value="" style="strokeColor=#dddddd;shadow=1;strokeWidth=1;rounded=1;absoluteArcSize=1;arcSize=2;fontSize=9;fontColor=#808080;" vertex="1" parent="14">
          <mxGeometry x="900" y="272.37" width="210" height="60" as="geometry" />
        </mxCell>
        <mxCell id="TnzbvpmYRHqeSD8uyRUV-702" value="&lt;font style=&quot;font-size: 12px;&quot;&gt;&lt;font style=&quot;font-size: 12px;&quot; color=&quot;#000000&quot;&gt;Python 3.8&lt;/font&gt;&lt;br&gt;CSM agents service&lt;/font&gt;" style="editableCssRules=.*;html=1;fontColor=#999999;shape=image;verticalLabelPosition=middle;labelBackgroundColor=#ffffff;verticalAlign=middle;labelPosition=right;align=left;spacingLeft=20;part=1;points=[];imageAspect=0;image=data:image/svg+xml,PHN2ZyB4bWxucz0iaHR0cDovL3d3dy53My5vcmcvMjAwMC9zdmciIHhtbG5zOnY9Imh0dHBzOi8vdmVjdGEuaW8vbmFubyIgd2lkdGg9IjIwLjAwMTcxNjYxMzc2OTUzIiBoZWlnaHQ9IjE0Ljc5ODEzMTk0Mjc0OTAyMyIgdmlld0JveD0iLTIuOTgwMjMyMjM4NzY5NTMxMmUtOCAtMC4wMDAxMzEyMzc1Mzg4ODA2Njg1OCAyMC4wMDE3MTY2MTM3Njk1MyAxNC43OTgxMzE5NDI3NDkwMjMiPiYjeGE7CTxzdHlsZSB0eXBlPSJ0ZXh0L2NzcyI+JiN4YTsJLnN0MHtmaWxsOiM0Mjg1ZjQ7fSYjeGE7CS5zdDF7ZmlsbDojNjY5ZGY2O30mI3hhOwkuc3Qye2ZpbGw6I2FlY2JmYTt9JiN4YTsJPC9zdHlsZT4mI3hhOwk8cGF0aCBjbGFzcz0ic3QwIiBkPSJNMTIuODYuODM4YTUuNDggNS40OCAwIDAgMC03LjA2IDEuMDYgNS4zMSA1LjMxIDAgMCAwLTEuMzQgMy42IDUuNDkgNS40OSAwIDAgMCAyLjQxIDQuNTNsLS4xNy4yOC0uNTYuMTYtMi4wNiAzLjQ4IDEuNDguODUgMi4wNS0zLjQ4LS4xNi0uNjEuMTQtLjI2YTUuNDkgNS40OSAwIDAgMCA1LjI3LTkuNjF6bS0xLjkyIDguM2EzLjc5IDMuNzkgMCAxIDEgMi42Ni00LjY1aDBhMy44IDMuOCAwIDAgMS0yLjY2IDQuNjV6Ii8+JiN4YTsJPHBhdGggY2xhc3M9InN0MSIgZD0iTS4wNSA0LjE3OGwuMTMtMS4wN2gxLjE4di4zNUguNTJ2LjQ1YS42OC42OCAwIDAgMSAuNzkuMTEuNzguNzggMCAwIDEgLjE3LjUzLjc3Ljc3IDAgMCAxLS4wOS4zNi41My41MyAwIDAgMS0uMjQuMjUuNjUuNjUgMCAwIDEtLjM4LjA5LjczLjczIDAgMCAxLS4zNi0uMDguNjYuNjYgMCAwIDEtLjI2LS4yMS42My42MyAwIDAgMS0uMTUtLjMyaC40MmEuMjcuMjcgMCAwIDAgLjA5LjIuMjUuMjUgMCAwIDAgLjIuMDcuMjMuMjMgMCAwIDAgLjIyLS4xLjQzLjQzIDAgMCAwIC4wNy0uMjkuMzcuMzcgMCAwIDAtLjA5LS4yNy4zMy4zMyAwIDAgMC0uMjUtLjEuNDEuNDEgMCAwIDAtLjI0LjA4aDB6Ii8+JiN4YTsJPHBhdGggY2xhc3M9InN0MiIgZD0iTTMuNDUgNS4yMThIM3YtMS42MWwtLjUxLjE1di0uMzZsLjg4LS4zMWgwek0xIDguMDU4SC41OXYtMS42MWwtLjUuMTV2LS4zNGwuOTEtLjMxaDB6Ii8+JiN4YTsJPHBhdGggY2xhc3M9InN0MSIgZD0iTTMuODYgNy4xODhhMS4xMyAxLjEzIDAgMCAxLS4xOC42Ny43NC43NCAwIDAgMS0xIDBoMGExIDEgMCAwIDEtLjE5LS42NXYtLjM5YTEuMDYgMS4wNiAwIDAgMSAuMTgtLjY3LjczLjczIDAgMCAxIDEgMGgwYTEuMDggMS4wOCAwIDAgMSAuMTkuNjV6bS0uNDItLjQzYS44My44MyAwIDAgMC0uMDctLjM2LjI1LjI1IDAgMCAwLS4yMy0uMTIuMjQuMjQgMCAwIDAtLjIyLjExLjc1Ljc1IDAgMCAwLS4wNy4zNnYuNTFhLjg1Ljg1IDAgMCAwIC4wNy4zOS4yMy4yMyAwIDAgMCAuMjMuMTIuMjMuMjMgMCAwIDAgLjIyLS4xMi43Ny43NyAwIDAgMCAuMDctLjM3eiIvPiYjeGE7CTxwYXRoIGNsYXNzPSJzdDIiIGQ9Ik0xNy4xMyA1LjEzOGgtLjQxdi0xLjYybC0uNTEuMTZ2LS4zNGwuODgtLjMyaDB6Ii8+JiN4YTsJPHBhdGggY2xhc3M9InN0MSIgZD0iTTE4LjYyIDQuMDk4bC4xMy0xLjA3aDEuMTh2LjM3aC0uODRsLS4wOS40M2EuNjUuNjUgMCAwIDEgLjMxLS4wOC42My42MyAwIDAgMSAuNDguMTkuNzQuNzQgMCAwIDEgLjE3LjUyLjgxLjgxIDAgMCAxLS4wOS4zNy42LjYgMCAwIDEtLjI1LjI1Ljc5Ljc5IDAgMCAxLS4zOC4wOS44NS44NSAwIDAgMS0uMzUtLjA4LjYyLjYyIDAgMCAxLS4yNi0uMjIuNTguNTggMCAwIDEtLjEtLjMySDE5YS4zNS4zNSAwIDAgMCAuMS4yMS4yOS4yOSAwIDAgMCAuMi4wNy4yNi4yNiAwIDAgMCAuMjItLjEuNDQuNDQgMCAwIDAgLjA2LS4zMy40MS40MSAwIDAgMC0uMDktLjI4LjM0LjM0IDAgMCAwLS4yNS0uMDkuMzQuMzQgMCAwIDAtLjI0LjA3aDB6bS0xLjA4IDMuMDlhMS4xMyAxLjEzIDAgMCAxLS4xOC42Ny43NC43NCAwIDAgMS0xIDBoMGExIDEgMCAwIDEtLjE5LS42NXYtLjM5YTEuMDYgMS4wNiAwIDAgMSAuMTgtLjY3LjczLjczIDAgMCAxIDEgMGgwYTEuMDggMS4wOCAwIDAgMSAuMTkuNjV6bS0uNDItLjQzYS44My44MyAwIDAgMC0uMDctLjM4LjI1LjI1IDAgMCAwLS4yMy0uMTIuMjQuMjQgMCAwIDAtLjIyLjExLjc1Ljc1IDAgMCAwLS4wNy4zNnYuNTFhLjg1Ljg1IDAgMCAwIC4wNy4zOS4yMy4yMyAwIDAgMCAuMjMuMTIuMjMuMjMgMCAwIDAgLjIyLS4xMi45LjkgMCAwIDAgLjA3LS4zN3oiLz4mI3hhOwk8cGF0aCBjbGFzcz0ic3QyIiBkPSJNMTguNjIgNy4wMThsLjEzLTEuMDdoMS4xOHYuMzVoLS44NGwtLjA1LjQ1YS42NS42NSAwIDAgMSAuMzEtLjA4LjYzLjYzIDAgMCAxIC40OC4xOS43OC43OCAwIDAgMSAuMTcuNTQuNzcuNzcgMCAwIDEtLjA5LjM2LjUxLjUxIDAgMCAxLS4yNS4yNS42OS42OSAwIDAgMS0uMzguMDkuNzIuNzIgMCAwIDEtLjM1LS4wOC41OS41OSAwIDAgMS0uMjYtLjIxLjYzLjYzIDAgMCAxLS4xLS4zMkgxOWEuMzIuMzIgMCAwIDAgLjEuMi4yNS4yNSAwIDAgMCAuMi4wNy4yMy4yMyAwIDAgMCAuMjItLjEuNDMuNDMgMCAwIDAgLjA4LS4yOS4zNy4zNyAwIDAgMC0uMDktLjI3LjMxLjMxIDAgMCAwLS4yNS0uMS4zNS4zNSAwIDAgMC0uMjQuMDhoMHoiLz4mI3hhOwk8cGF0aCBjbGFzcz0ic3QxIiBkPSJNNy43MyA3LjUwOHYtLjk0YS44Ni44NiAwIDAgMSAuMzUtLjYyIDIuNDMgMi40MyAwIDAgMSAuODMtLjQzIDIuODcgMi44NyAwIDAgMSAyLjQyLjI4IDEuMDUgMS4wNSAwIDAgMSAuMjcuMi45LjkgMCAwIDEgLjMuNzV2Ljc2em0yLjA4LTIuNjFhMS4wOCAxLjA4IDAgMSAxIDEuMDgtMS4wN2gwYTEuMDkgMS4wOSAwIDAgMS0xLjA4IDEuMDd6Ii8+JiN4YTs8L3N2Zz4=;shadow=1;fontSize=9;strokeColor=#808080;" vertex="1" parent="TnzbvpmYRHqeSD8uyRUV-701">
          <mxGeometry width="40" height="30" relative="1" as="geometry">
            <mxPoint x="15" y="19" as="offset" />
          </mxGeometry>
        </mxCell>
        <mxCell id="2" value="Architecture: Microservices Backend" style="fillColor=#4DA1F5;strokeColor=none;shadow=1;gradientColor=none;fontSize=14;align=left;spacingLeft=50;fontColor=#ffffff;html=1;" parent="1" vertex="1">
          <mxGeometry x="340" y="50" width="1380" height="40" as="geometry" />
        </mxCell>
        <mxCell id="TnzbvpmYRHqeSD8uyRUV-650" value="&lt;b&gt;Docker&lt;/b&gt;" style="fillColor=#f5f5f5;strokeColor=#666666;shadow=1;fontSize=14;align=left;spacing=10;9E9E9E;verticalAlign=top;spacingTop=-4;fontStyle=0;spacingLeft=40;html=1;fontColor=#333333;" vertex="1" parent="1">
          <mxGeometry x="380" y="130" width="796.84" height="480" as="geometry" />
        </mxCell>
        <mxCell id="TnzbvpmYRHqeSD8uyRUV-651" value="" style="shape=image;html=1;verticalAlign=top;verticalLabelPosition=bottom;labelBackgroundColor=#ffffff;imageAspect=0;aspect=fixed;image=https://cdn1.iconfinder.com/data/icons/unicons-line-vol-3/24/docker-128.png;shadow=1;" vertex="1" parent="TnzbvpmYRHqeSD8uyRUV-650">
          <mxGeometry x="10" width="35.787511649580615" height="35.787511649580615" as="geometry" />
        </mxCell>
        <mxCell id="TnzbvpmYRHqeSD8uyRUV-689" style="edgeStyle=none;rounded=0;orthogonalLoop=1;jettySize=auto;html=1;exitX=0;exitY=0.75;exitDx=0;exitDy=0;dashed=1;fontSize=9;fontColor=#808080;startArrow=classicThin;startFill=1;endArrow=classicThin;endFill=1;strokeColor=#336600;strokeWidth=2;fillColor=#cdeb8b;dashPattern=1 4;" edge="1" parent="TnzbvpmYRHqeSD8uyRUV-650" source="TnzbvpmYRHqeSD8uyRUV-652" target="TnzbvpmYRHqeSD8uyRUV-669">
          <mxGeometry relative="1" as="geometry">
            <Array as="points">
              <mxPoint x="150" y="131" />
              <mxPoint x="150" y="394" />
            </Array>
          </mxGeometry>
        </mxCell>
        <mxCell id="TnzbvpmYRHqeSD8uyRUV-692" value="ZMQ Socket" style="edgeLabel;html=1;align=center;verticalAlign=middle;resizable=0;points=[];fontSize=9;fontColor=#808080;" vertex="1" connectable="0" parent="TnzbvpmYRHqeSD8uyRUV-689">
          <mxGeometry x="-0.5221" y="3" relative="1" as="geometry">
            <mxPoint as="offset" />
          </mxGeometry>
        </mxCell>
        <mxCell id="TnzbvpmYRHqeSD8uyRUV-652" value="&lt;b&gt;Auth Service&lt;/b&gt;" style="fillColor=#d5e8d4;strokeColor=#82b366;shadow=0;fontSize=14;align=left;spacing=10;9E9E9E;verticalAlign=top;spacingTop=-4;fontStyle=0;spacingLeft=40;html=1;" vertex="1" parent="TnzbvpmYRHqeSD8uyRUV-650">
          <mxGeometry x="172.36" y="50.549860205032616" width="447.64" height="107.36253494874184" as="geometry" />
        </mxCell>
        <mxCell id="TnzbvpmYRHqeSD8uyRUV-653" style="edgeStyle=none;rounded=0;orthogonalLoop=1;jettySize=auto;html=1;exitX=1;exitY=0.5;exitDx=0;exitDy=0;fontSize=7;fontColor=#808080;startArrow=blockThin;startFill=1;endArrow=classic;endFill=1;strokeColor=#d6b656;strokeWidth=1;fillColor=#fff2cc;" edge="1" parent="TnzbvpmYRHqeSD8uyRUV-650" source="TnzbvpmYRHqeSD8uyRUV-654" target="TnzbvpmYRHqeSD8uyRUV-656">
          <mxGeometry relative="1" as="geometry" />
        </mxCell>
        <mxCell id="TnzbvpmYRHqeSD8uyRUV-654" value="" style="strokeColor=#dddddd;shadow=1;strokeWidth=1;rounded=1;absoluteArcSize=1;arcSize=2;" vertex="1" parent="TnzbvpmYRHqeSD8uyRUV-650">
          <mxGeometry x="197.36" y="86.33737185461322" width="222.99" height="53.68126747437092" as="geometry" />
        </mxCell>
        <mxCell id="TnzbvpmYRHqeSD8uyRUV-655" value="&lt;font color=&quot;#000000&quot;&gt;NodeJS&lt;/font&gt;&lt;br&gt;Express, ZMQ, Mongoose" style="editableCssRules=.*;html=1;fontColor=#999999;shape=image;verticalLabelPosition=middle;labelBackgroundColor=#ffffff;verticalAlign=middle;labelPosition=right;align=left;spacingLeft=20;part=1;points=[];imageAspect=0;image=data:image/svg+xml,PHN2ZyB4bWxucz0iaHR0cDovL3d3dy53My5vcmcvMjAwMC9zdmciIHhtbG5zOnY9Imh0dHBzOi8vdmVjdGEuaW8vbmFubyIgd2lkdGg9IjMxMC43NzU2MDY1NDM4NjAyNSIgaGVpZ2h0PSIzNzcuOTUzMDI4ODM1NTI1NDYiIHZpZXdCb3g9Ii0wLjE0MDAwMDAwMDU5NjA0NjQ1IC0wLjQ2NzAwMDAwNzYyOTM5NDUzIDgyLjIyNTk5NzkyNDgwNDY5IDEwMC4wMDAwMDc2MjkzOTQ1MyI+JiN4YTs8c3R5bGUgdHlwZT0idGV4dC9jc3MiPiYjeGE7CS5zdDB7ZmlsbDojNDI4NWY0O30mI3hhOwkuc3Qxe2ZpbGw6IzY2OWRmNjt9JiN4YTsJLnN0MntmaWxsOiNmZmY7fSYjeGE7PC9zdHlsZT4mI3hhOwk8cGF0aCBjbGFzcz0ic3QwIiBkPSJNNDAuOTczLS40NjdsNDEuMTEzIDE3LjQ5M3YyOS42NTRjMCAyNy40MTgtMjQuNjA4IDUwLjgzNi00MS4xMTMgNTIuODUzeiIvPiYjeGE7CTxwYXRoIGNsYXNzPSJzdDEiIGQ9Ik00MC45NzMtLjQ2N0wtLjE0IDE3LjAyNXYyOS42NTRjMCAyNy40MTggMjQuNjA4IDUwLjgzNiA0MS4xMTMgNTIuODUzeiIvPiYjeGE7CTxwYXRoIGNsYXNzPSJzdDIiIGQ9Ik00MS4yNTMgMTYuNjA1Yy05LjU4NCAwLTE3LjQ0NSA3Ljg2Mi0xNy40NDUgMTcuNDQ1IDAgOC4wODQgNS41OTQgMTQuOTQyIDEzLjA5NiAxNi44OTF2OS40ODhoLTkuODY5djguNzAxaDkuODY5djUuMzc3aC02LjMxNXY4LjcwMWg2LjMxNXYyLjE5N2g4LjcwMVY1MC45NDFDNTMuMTA2IDQ4Ljk5MiA1OC43IDQyLjEzNCA1OC43IDM0LjA1YzAtOS41ODQtNy44NjMtMTcuNDQ1LTE3LjQ0Ny0xNy40NDV6bTAgOC42OTlBOC42OCA4LjY4IDAgMCAxIDUwIDM0LjA1YTguNjggOC42OCAwIDAgMS04Ljc0OCA4Ljc0NiA4LjY4IDguNjggMCAwIDEtOC43NDYtOC43NDYgOC42OCA4LjY4IDAgMCAxIDguNzQ2LTguNzQ2eiIvPiYjeGE7PC9zdmc+;shadow=1;" vertex="1" parent="TnzbvpmYRHqeSD8uyRUV-654">
          <mxGeometry width="24" height="30" relative="1" as="geometry">
            <mxPoint x="18" y="15" as="offset" />
          </mxGeometry>
        </mxCell>
        <mxCell id="TnzbvpmYRHqeSD8uyRUV-682" style="edgeStyle=none;rounded=0;orthogonalLoop=1;jettySize=auto;html=1;exitX=1;exitY=0;exitDx=0;exitDy=0;entryX=0;entryY=0.5;entryDx=0;entryDy=0;dashed=1;fontSize=9;fontColor=#808080;startArrow=classicThin;startFill=1;endArrow=classicThin;endFill=1;strokeColor=#808080;strokeWidth=1;" edge="1" parent="TnzbvpmYRHqeSD8uyRUV-650" source="TnzbvpmYRHqeSD8uyRUV-656" target="TnzbvpmYRHqeSD8uyRUV-680">
          <mxGeometry relative="1" as="geometry" />
        </mxCell>
        <mxCell id="TnzbvpmYRHqeSD8uyRUV-656" value="" style="strokeColor=#dddddd;shadow=1;strokeWidth=1;rounded=1;absoluteArcSize=1;arcSize=2;" vertex="1" parent="TnzbvpmYRHqeSD8uyRUV-650">
          <mxGeometry x="470" y="86.33737185461322" width="140" height="53.68126747437092" as="geometry" />
        </mxCell>
        <mxCell id="TnzbvpmYRHqeSD8uyRUV-657" value="&lt;font color=&quot;#000000&quot;&gt;Mongo&lt;/font&gt;&lt;br&gt;Auth DB" style="editableCssRules=.*;html=1;fontColor=#999999;shape=image;verticalLabelPosition=middle;labelBackgroundColor=#ffffff;verticalAlign=middle;labelPosition=right;align=left;spacingLeft=20;part=1;points=[];imageAspect=0;image=data:image/svg+xml,PHN2ZyB4bWxucz0iaHR0cDovL3d3dy53My5vcmcvMjAwMC9zdmciIHhtbG5zOnY9Imh0dHBzOi8vdmVjdGEuaW8vbmFubyIgd2lkdGg9IjE4LjI3OTk5ODc3OTI5Njg3NSIgaGVpZ2h0PSIyMCIgdmlld0JveD0iMS4yNDYyOTA4MDM4OTEyNzAxZS04IDAgMTguMjc5OTk4Nzc5Mjk2ODc1IDIwIj4mI3hhOwk8c3R5bGUgdHlwZT0idGV4dC9jc3MiPiYjeGE7CS5zdDB7ZmlsbDojNjY5ZGY2O2ZpbGwtcnVsZTpldmVub2RkfSYjeGE7CS5zdDF7ZmlsbDojNDI4NWY0O30mI3hhOwkuc3Qye2ZpbGwtcnVsZTpldmVub2RkfSYjeGE7CTwvc3R5bGU+JiN4YTsJPHBhdGggY2xhc3M9InN0MCIgZD0iTTcuNjMgOWEuOTEuOTEgMCAxIDEtLjY0My4yNjdBLjkxLjkxIDAgMCAxIDcuNjMgOXptMC0uOGExLjcxIDEuNzEgMCAxIDAgMS43IDEuNzEgMS43IDEuNyAwIDAgMC0xLjctMS43MXpNMS43MiA5YS45MS45MSAwIDEgMS0uNjQzLjI2N0EuOTEuOTEgMCAwIDEgMS43MiA5em0wLS44YTEuNzEgMS43MSAwIDEgMCAxLjcgMS43MSAxLjcgMS43IDAgMCAwLTEuNy0xLjcxem0zLjA0IDYuMTFhLjkxLjkxIDAgMSAxIDAgMS44Mi45MS45MSAwIDEgMSAwLTEuODJ6bTAtLjc5YTEuNzEgMS43MSAwIDEgMCAxLjIuNSAxLjcgMS43IDAgMCAwLTEuMi0uNXptMC05LjczYS45MS45MSAwIDAgMS0uMDQgMS44MTkuOTEuOTEgMCAwIDEtLjktLjkwOS45Mi45MiAwIDAgMSAuOTQtLjkxem0wLS44YTEuNzEgMS43MSAwIDEgMCAxLjIuNUExLjcgMS43IDAgMCAwIDQuNzYgM3oiLz4mI3hhOwk8ZyBjbGFzcz0ic3QxIj4mI3hhOwkJPHBhdGggZD0iTTcuODEgMGgxLjY4djIwSDcuODF6Ii8+JiN4YTsJCTxwYXRoIGNsYXNzPSJzdDIiIGQ9Ik0xMy40IDIuODdIOC44OWEuMzcuMzcgMCAwIDAtLjMuNHYyLjgyYS4zNi4zNiAwIDAgMCAuMy4zOWg0LjUxYS4zNi4zNiAwIDAgMCAuMzEtLjM5VjMuMjhhLjM3LjM3IDAgMCAwLS4zMS0uNDF6bTQuMzIgNS4yOUg5LjRjLS4zMSAwLS41Ni4xOC0uNTYuMzl2Mi44MmMwIC4yMi4yNS40LjU2LjRoOC4zMmMuMzEgMCAuNTYtLjE5LjU2LS40VjguNTVjMC0uMjItLjI1LS4zOS0uNTYtLjM5em0tNS45MSA1LjI4SDguMjhjLS4xMyAwLS4yMy4xOC0uMjMuMzl2Mi44MmMwIC4yMi4xLjM5LjIzLjM5aDMuNTNjLjEzIDAgLjI0LS4xOC4yNC0uMzl2LTIuODJjLS4wMS0uMjItLjExLS4zOS0uMjQtLjM5eiIvPiYjeGE7CTwvZz4mI3hhOzwvc3ZnPg==;shadow=1;" vertex="1" parent="TnzbvpmYRHqeSD8uyRUV-656">
          <mxGeometry width="30" height="28" relative="1" as="geometry">
            <mxPoint x="15" y="16" as="offset" />
          </mxGeometry>
        </mxCell>
        <mxCell id="TnzbvpmYRHqeSD8uyRUV-658" value="&lt;br&gt;Nginx&lt;br&gt;Reverse-&lt;br&gt;Proxy" style="rounded=1;absoluteArcSize=1;arcSize=2;html=1;strokeColor=#36393d;shadow=0;dashed=0;strokeColor=none;fontSize=12;align=left;verticalAlign=top;spacing=10;spacingTop=-4;fillColor=#cdeb8b;" vertex="1" parent="TnzbvpmYRHqeSD8uyRUV-650">
          <mxGeometry x="10" y="50.55" width="70" height="405.74" as="geometry" />
        </mxCell>
        <mxCell id="TnzbvpmYRHqeSD8uyRUV-659" value="&lt;b&gt;Equeue Service&lt;/b&gt;" style="fillColor=#d5e8d4;strokeColor=#82b366;shadow=0;fontSize=14;align=left;spacing=10;9E9E9E;verticalAlign=top;spacingTop=-4;fontStyle=0;spacingLeft=40;html=1;" vertex="1" parent="TnzbvpmYRHqeSD8uyRUV-650">
          <mxGeometry x="172.36" y="199.7390493942218" width="447.64" height="107.36253494874184" as="geometry" />
        </mxCell>
        <mxCell id="TnzbvpmYRHqeSD8uyRUV-660" style="edgeStyle=none;rounded=0;orthogonalLoop=1;jettySize=auto;html=1;exitX=1;exitY=0.5;exitDx=0;exitDy=0;fontSize=7;fontColor=#808080;startArrow=blockThin;startFill=1;endArrow=classic;endFill=1;strokeColor=#d6b656;strokeWidth=1;fillColor=#fff2cc;" edge="1" parent="TnzbvpmYRHqeSD8uyRUV-650" source="TnzbvpmYRHqeSD8uyRUV-661" target="TnzbvpmYRHqeSD8uyRUV-663">
          <mxGeometry relative="1" as="geometry" />
        </mxCell>
        <mxCell id="TnzbvpmYRHqeSD8uyRUV-661" value="" style="strokeColor=#dddddd;shadow=1;strokeWidth=1;rounded=1;absoluteArcSize=1;arcSize=2;" vertex="1" parent="TnzbvpmYRHqeSD8uyRUV-650">
          <mxGeometry x="197.36" y="235.52656104380242" width="212.64" height="53.68126747437092" as="geometry" />
        </mxCell>
        <mxCell id="TnzbvpmYRHqeSD8uyRUV-662" value="&lt;font color=&quot;#000000&quot;&gt;NodeJS&lt;/font&gt;&lt;br&gt;Express, ZMQ, MySQL2" style="editableCssRules=.*;html=1;fontColor=#999999;shape=image;verticalLabelPosition=middle;labelBackgroundColor=#ffffff;verticalAlign=middle;labelPosition=right;align=left;spacingLeft=20;part=1;points=[];imageAspect=0;image=data:image/svg+xml,PHN2ZyB4bWxucz0iaHR0cDovL3d3dy53My5vcmcvMjAwMC9zdmciIHhtbG5zOnY9Imh0dHBzOi8vdmVjdGEuaW8vbmFubyIgd2lkdGg9IjMxMC43NzU2MDY1NDM4NjAyNSIgaGVpZ2h0PSIzNzcuOTUzMDI4ODM1NTI1NDYiIHZpZXdCb3g9Ii0wLjE0MDAwMDAwMDU5NjA0NjQ1IC0wLjQ2NzAwMDAwNzYyOTM5NDUzIDgyLjIyNTk5NzkyNDgwNDY5IDEwMC4wMDAwMDc2MjkzOTQ1MyI+JiN4YTs8c3R5bGUgdHlwZT0idGV4dC9jc3MiPiYjeGE7CS5zdDB7ZmlsbDojNDI4NWY0O30mI3hhOwkuc3Qxe2ZpbGw6IzY2OWRmNjt9JiN4YTsJLnN0MntmaWxsOiNmZmY7fSYjeGE7PC9zdHlsZT4mI3hhOwk8cGF0aCBjbGFzcz0ic3QwIiBkPSJNNDAuOTczLS40NjdsNDEuMTEzIDE3LjQ5M3YyOS42NTRjMCAyNy40MTgtMjQuNjA4IDUwLjgzNi00MS4xMTMgNTIuODUzeiIvPiYjeGE7CTxwYXRoIGNsYXNzPSJzdDEiIGQ9Ik00MC45NzMtLjQ2N0wtLjE0IDE3LjAyNXYyOS42NTRjMCAyNy40MTggMjQuNjA4IDUwLjgzNiA0MS4xMTMgNTIuODUzeiIvPiYjeGE7CTxwYXRoIGNsYXNzPSJzdDIiIGQ9Ik00MS4yNTMgMTYuNjA1Yy05LjU4NCAwLTE3LjQ0NSA3Ljg2Mi0xNy40NDUgMTcuNDQ1IDAgOC4wODQgNS41OTQgMTQuOTQyIDEzLjA5NiAxNi44OTF2OS40ODhoLTkuODY5djguNzAxaDkuODY5djUuMzc3aC02LjMxNXY4LjcwMWg2LjMxNXYyLjE5N2g4LjcwMVY1MC45NDFDNTMuMTA2IDQ4Ljk5MiA1OC43IDQyLjEzNCA1OC43IDM0LjA1YzAtOS41ODQtNy44NjMtMTcuNDQ1LTE3LjQ0Ny0xNy40NDV6bTAgOC42OTlBOC42OCA4LjY4IDAgMCAxIDUwIDM0LjA1YTguNjggOC42OCAwIDAgMS04Ljc0OCA4Ljc0NiA4LjY4IDguNjggMCAwIDEtOC43NDYtOC43NDYgOC42OCA4LjY4IDAgMCAxIDguNzQ2LTguNzQ2eiIvPiYjeGE7PC9zdmc+;shadow=1;" vertex="1" parent="TnzbvpmYRHqeSD8uyRUV-661">
          <mxGeometry width="24" height="30" relative="1" as="geometry">
            <mxPoint x="18" y="15" as="offset" />
          </mxGeometry>
        </mxCell>
        <mxCell id="TnzbvpmYRHqeSD8uyRUV-681" style="edgeStyle=none;rounded=0;orthogonalLoop=1;jettySize=auto;html=1;exitX=1.003;exitY=0.073;exitDx=0;exitDy=0;entryX=0;entryY=0.5;entryDx=0;entryDy=0;dashed=1;fontSize=9;fontColor=#808080;startArrow=blockThin;startFill=1;endArrow=classic;endFill=1;strokeColor=#808080;strokeWidth=1;exitPerimeter=0;" edge="1" parent="TnzbvpmYRHqeSD8uyRUV-650" source="TnzbvpmYRHqeSD8uyRUV-663" target="TnzbvpmYRHqeSD8uyRUV-677">
          <mxGeometry relative="1" as="geometry" />
        </mxCell>
        <mxCell id="TnzbvpmYRHqeSD8uyRUV-663" value="" style="strokeColor=#dddddd;shadow=1;strokeWidth=1;rounded=1;absoluteArcSize=1;arcSize=2;" vertex="1" parent="TnzbvpmYRHqeSD8uyRUV-650">
          <mxGeometry x="470" y="235.52656104380242" width="140" height="53.68126747437092" as="geometry" />
        </mxCell>
        <mxCell id="TnzbvpmYRHqeSD8uyRUV-664" value="&lt;font color=&quot;#000000&quot;&gt;MySQL&lt;/font&gt;&lt;br&gt;Equeue DB" style="editableCssRules=.*;html=1;fontColor=#999999;shape=image;verticalLabelPosition=middle;labelBackgroundColor=#ffffff;verticalAlign=middle;labelPosition=right;align=left;spacingLeft=20;part=1;points=[];imageAspect=0;image=data:image/svg+xml,PHN2ZyB4bWxucz0iaHR0cDovL3d3dy53My5vcmcvMjAwMC9zdmciIHhtbG5zOnY9Imh0dHBzOi8vdmVjdGEuaW8vbmFubyIgd2lkdGg9IjE4LjI3OTk5ODc3OTI5Njg3NSIgaGVpZ2h0PSIyMCIgdmlld0JveD0iMS4yNDYyOTA4MDM4OTEyNzAxZS04IDAgMTguMjc5OTk4Nzc5Mjk2ODc1IDIwIj4mI3hhOwk8c3R5bGUgdHlwZT0idGV4dC9jc3MiPiYjeGE7CS5zdDB7ZmlsbDojNjY5ZGY2O2ZpbGwtcnVsZTpldmVub2RkfSYjeGE7CS5zdDF7ZmlsbDojNDI4NWY0O30mI3hhOwkuc3Qye2ZpbGwtcnVsZTpldmVub2RkfSYjeGE7CTwvc3R5bGU+JiN4YTsJPHBhdGggY2xhc3M9InN0MCIgZD0iTTcuNjMgOWEuOTEuOTEgMCAxIDEtLjY0My4yNjdBLjkxLjkxIDAgMCAxIDcuNjMgOXptMC0uOGExLjcxIDEuNzEgMCAxIDAgMS43IDEuNzEgMS43IDEuNyAwIDAgMC0xLjctMS43MXpNMS43MiA5YS45MS45MSAwIDEgMS0uNjQzLjI2N0EuOTEuOTEgMCAwIDEgMS43MiA5em0wLS44YTEuNzEgMS43MSAwIDEgMCAxLjcgMS43MSAxLjcgMS43IDAgMCAwLTEuNy0xLjcxem0zLjA0IDYuMTFhLjkxLjkxIDAgMSAxIDAgMS44Mi45MS45MSAwIDEgMSAwLTEuODJ6bTAtLjc5YTEuNzEgMS43MSAwIDEgMCAxLjIuNSAxLjcgMS43IDAgMCAwLTEuMi0uNXptMC05LjczYS45MS45MSAwIDAgMS0uMDQgMS44MTkuOTEuOTEgMCAwIDEtLjktLjkwOS45Mi45MiAwIDAgMSAuOTQtLjkxem0wLS44YTEuNzEgMS43MSAwIDEgMCAxLjIuNUExLjcgMS43IDAgMCAwIDQuNzYgM3oiLz4mI3hhOwk8ZyBjbGFzcz0ic3QxIj4mI3hhOwkJPHBhdGggZD0iTTcuODEgMGgxLjY4djIwSDcuODF6Ii8+JiN4YTsJCTxwYXRoIGNsYXNzPSJzdDIiIGQ9Ik0xMy40IDIuODdIOC44OWEuMzcuMzcgMCAwIDAtLjMuNHYyLjgyYS4zNi4zNiAwIDAgMCAuMy4zOWg0LjUxYS4zNi4zNiAwIDAgMCAuMzEtLjM5VjMuMjhhLjM3LjM3IDAgMCAwLS4zMS0uNDF6bTQuMzIgNS4yOUg5LjRjLS4zMSAwLS41Ni4xOC0uNTYuMzl2Mi44MmMwIC4yMi4yNS40LjU2LjRoOC4zMmMuMzEgMCAuNTYtLjE5LjU2LS40VjguNTVjMC0uMjItLjI1LS4zOS0uNTYtLjM5em0tNS45MSA1LjI4SDguMjhjLS4xMyAwLS4yMy4xOC0uMjMuMzl2Mi44MmMwIC4yMi4xLjM5LjIzLjM5aDMuNTNjLjEzIDAgLjI0LS4xOC4yNC0uMzl2LTIuODJjLS4wMS0uMjItLjExLS4zOS0uMjQtLjM5eiIvPiYjeGE7CTwvZz4mI3hhOzwvc3ZnPg==;shadow=1;" vertex="1" parent="TnzbvpmYRHqeSD8uyRUV-663">
          <mxGeometry width="30" height="28" relative="1" as="geometry">
            <mxPoint x="15" y="16" as="offset" />
          </mxGeometry>
        </mxCell>
        <mxCell id="TnzbvpmYRHqeSD8uyRUV-665" style="edgeStyle=orthogonalEdgeStyle;rounded=0;orthogonalLoop=1;jettySize=auto;html=1;fillColor=#dae8fc;strokeColor=#6666FF;exitX=1;exitY=0.5;exitDx=0;exitDy=0;strokeWidth=1;shape=link;" edge="1" parent="TnzbvpmYRHqeSD8uyRUV-650" source="TnzbvpmYRHqeSD8uyRUV-658" target="TnzbvpmYRHqeSD8uyRUV-659">
          <mxGeometry relative="1" as="geometry">
            <mxPoint x="100" y="160.93196644920783" as="sourcePoint" />
            <mxPoint x="182.36000000000013" y="113.15169124499756" as="targetPoint" />
          </mxGeometry>
        </mxCell>
        <mxCell id="TnzbvpmYRHqeSD8uyRUV-666" value="&lt;b&gt;&lt;font style=&quot;font-size: 13px;&quot;&gt;3100&lt;/font&gt;&lt;/b&gt;" style="edgeLabel;html=1;align=center;verticalAlign=middle;resizable=0;points=[];" vertex="1" connectable="0" parent="TnzbvpmYRHqeSD8uyRUV-665">
          <mxGeometry x="0.28" y="-5" relative="1" as="geometry">
            <mxPoint x="-33" y="-5" as="offset" />
          </mxGeometry>
        </mxCell>
        <mxCell id="TnzbvpmYRHqeSD8uyRUV-667" style="edgeStyle=orthogonalEdgeStyle;rounded=0;orthogonalLoop=1;jettySize=auto;html=1;fillColor=#dae8fc;strokeColor=#6666FF;exitX=1;exitY=0.25;exitDx=0;exitDy=0;strokeWidth=1;shape=link;entryX=0;entryY=0.5;entryDx=0;entryDy=0;" edge="1" parent="TnzbvpmYRHqeSD8uyRUV-650" source="TnzbvpmYRHqeSD8uyRUV-658" target="TnzbvpmYRHqeSD8uyRUV-652">
          <mxGeometry relative="1" as="geometry">
            <mxPoint x="100" y="262.3671947809879" as="sourcePoint" />
            <mxPoint x="182.36000000000013" y="262.3671947809879" as="targetPoint" />
          </mxGeometry>
        </mxCell>
        <mxCell id="TnzbvpmYRHqeSD8uyRUV-668" value="&lt;b&gt;&lt;font style=&quot;font-size: 13px;&quot;&gt;3000&lt;/font&gt;&lt;/b&gt;" style="edgeLabel;html=1;align=center;verticalAlign=middle;resizable=0;points=[];" vertex="1" connectable="0" parent="TnzbvpmYRHqeSD8uyRUV-667">
          <mxGeometry x="0.28" y="-5" relative="1" as="geometry">
            <mxPoint x="-26" y="40" as="offset" />
          </mxGeometry>
        </mxCell>
        <mxCell id="TnzbvpmYRHqeSD8uyRUV-669" value="&lt;b&gt;Mail-Relay Service&amp;nbsp;&lt;/b&gt;" style="fillColor=#d5e8d4;strokeColor=#82b366;shadow=0;fontSize=14;align=left;spacing=10;9E9E9E;verticalAlign=top;spacingTop=-4;fontStyle=0;spacingLeft=40;html=1;" vertex="1" parent="TnzbvpmYRHqeSD8uyRUV-650">
          <mxGeometry x="172.36" y="430" width="277.64" height="107.36" as="geometry" />
        </mxCell>
        <mxCell id="TnzbvpmYRHqeSD8uyRUV-670" value="" style="strokeColor=#dddddd;shadow=1;strokeWidth=1;rounded=1;absoluteArcSize=1;arcSize=2;" vertex="1" parent="TnzbvpmYRHqeSD8uyRUV-650">
          <mxGeometry x="197.36" y="465.78887232059645" width="222.99" height="53.68126747437092" as="geometry" />
        </mxCell>
        <mxCell id="TnzbvpmYRHqeSD8uyRUV-671" value="&lt;font color=&quot;#000000&quot;&gt;NodeJS&lt;/font&gt;&lt;br&gt;ZMQ" style="editableCssRules=.*;html=1;fontColor=#999999;shape=image;verticalLabelPosition=middle;labelBackgroundColor=#ffffff;verticalAlign=middle;labelPosition=right;align=left;spacingLeft=20;part=1;points=[];imageAspect=0;image=data:image/svg+xml,PHN2ZyB4bWxucz0iaHR0cDovL3d3dy53My5vcmcvMjAwMC9zdmciIHhtbG5zOnY9Imh0dHBzOi8vdmVjdGEuaW8vbmFubyIgd2lkdGg9IjMxMC43NzU2MDY1NDM4NjAyNSIgaGVpZ2h0PSIzNzcuOTUzMDI4ODM1NTI1NDYiIHZpZXdCb3g9Ii0wLjE0MDAwMDAwMDU5NjA0NjQ1IC0wLjQ2NzAwMDAwNzYyOTM5NDUzIDgyLjIyNTk5NzkyNDgwNDY5IDEwMC4wMDAwMDc2MjkzOTQ1MyI+JiN4YTs8c3R5bGUgdHlwZT0idGV4dC9jc3MiPiYjeGE7CS5zdDB7ZmlsbDojNDI4NWY0O30mI3hhOwkuc3Qxe2ZpbGw6IzY2OWRmNjt9JiN4YTsJLnN0MntmaWxsOiNmZmY7fSYjeGE7PC9zdHlsZT4mI3hhOwk8cGF0aCBjbGFzcz0ic3QwIiBkPSJNNDAuOTczLS40NjdsNDEuMTEzIDE3LjQ5M3YyOS42NTRjMCAyNy40MTgtMjQuNjA4IDUwLjgzNi00MS4xMTMgNTIuODUzeiIvPiYjeGE7CTxwYXRoIGNsYXNzPSJzdDEiIGQ9Ik00MC45NzMtLjQ2N0wtLjE0IDE3LjAyNXYyOS42NTRjMCAyNy40MTggMjQuNjA4IDUwLjgzNiA0MS4xMTMgNTIuODUzeiIvPiYjeGE7CTxwYXRoIGNsYXNzPSJzdDIiIGQ9Ik00MS4yNTMgMTYuNjA1Yy05LjU4NCAwLTE3LjQ0NSA3Ljg2Mi0xNy40NDUgMTcuNDQ1IDAgOC4wODQgNS41OTQgMTQuOTQyIDEzLjA5NiAxNi44OTF2OS40ODhoLTkuODY5djguNzAxaDkuODY5djUuMzc3aC02LjMxNXY4LjcwMWg2LjMxNXYyLjE5N2g4LjcwMVY1MC45NDFDNTMuMTA2IDQ4Ljk5MiA1OC43IDQyLjEzNCA1OC43IDM0LjA1YzAtOS41ODQtNy44NjMtMTcuNDQ1LTE3LjQ0Ny0xNy40NDV6bTAgOC42OTlBOC42OCA4LjY4IDAgMCAxIDUwIDM0LjA1YTguNjggOC42OCAwIDAgMS04Ljc0OCA4Ljc0NiA4LjY4IDguNjggMCAwIDEtOC43NDYtOC43NDYgOC42OCA4LjY4IDAgMCAxIDguNzQ2LTguNzQ2eiIvPiYjeGE7PC9zdmc+;shadow=1;" vertex="1" parent="TnzbvpmYRHqeSD8uyRUV-670">
          <mxGeometry width="24" height="30" relative="1" as="geometry">
            <mxPoint x="18" y="15" as="offset" />
          </mxGeometry>
        </mxCell>
        <mxCell id="TnzbvpmYRHqeSD8uyRUV-677" value="queue DB" style="shape=datastore;whiteSpace=wrap;html=1;shadow=1;strokeColor=#808080;" vertex="1" parent="TnzbvpmYRHqeSD8uyRUV-650">
          <mxGeometry x="654.87" y="182.63" width="47.02" height="52.9" as="geometry" />
        </mxCell>
        <mxCell id="TnzbvpmYRHqeSD8uyRUV-680" value="users DB" style="shape=datastore;whiteSpace=wrap;html=1;shadow=1;strokeColor=#808080;" vertex="1" parent="TnzbvpmYRHqeSD8uyRUV-650">
          <mxGeometry x="654.87" y="35.56999999999999" width="45.13" height="50.77" as="geometry" />
        </mxCell>
        <mxCell id="TnzbvpmYRHqeSD8uyRUV-690" style="edgeStyle=none;rounded=0;orthogonalLoop=1;jettySize=auto;html=1;exitX=0;exitY=0.75;exitDx=0;exitDy=0;dashed=1;fontSize=9;fontColor=#808080;startArrow=classicThin;startFill=1;endArrow=classicThin;endFill=1;strokeColor=#336600;strokeWidth=2;fillColor=#cdeb8b;dashPattern=1 4;entryX=0;entryY=0.5;entryDx=0;entryDy=0;" edge="1" parent="TnzbvpmYRHqeSD8uyRUV-650" source="TnzbvpmYRHqeSD8uyRUV-659" target="TnzbvpmYRHqeSD8uyRUV-669">
          <mxGeometry relative="1" as="geometry">
            <mxPoint x="182.36000000000035" y="141.07176141658886" as="sourcePoint" />
            <mxPoint x="182.36000000000035" y="403.9528328576746" as="targetPoint" />
            <Array as="points">
              <mxPoint x="150" y="280" />
              <mxPoint x="150" y="340" />
              <mxPoint x="150" y="394" />
            </Array>
          </mxGeometry>
        </mxCell>
        <mxCell id="TnzbvpmYRHqeSD8uyRUV-691" value="ZMQ Socket" style="edgeLabel;html=1;align=center;verticalAlign=middle;resizable=0;points=[];fontSize=9;fontColor=#808080;" vertex="1" connectable="0" parent="TnzbvpmYRHqeSD8uyRUV-690">
          <mxGeometry x="-0.1449" relative="1" as="geometry">
            <mxPoint as="offset" />
          </mxGeometry>
        </mxCell>
        <mxCell id="TnzbvpmYRHqeSD8uyRUV-699" style="edgeStyle=none;rounded=0;orthogonalLoop=1;jettySize=auto;html=1;exitX=1;exitY=0.5;exitDx=0;exitDy=0;fontSize=9;fontColor=#808080;startArrow=classicThin;startFill=1;endArrow=classicThin;endFill=1;strokeColor=#336600;strokeWidth=2;dashed=1;" edge="1" parent="1" source="TnzbvpmYRHqeSD8uyRUV-659" target="TnzbvpmYRHqeSD8uyRUV-694">
          <mxGeometry relative="1" as="geometry" />
        </mxCell>
        <mxCell id="TnzbvpmYRHqeSD8uyRUV-700" value="ZMQ Socket" style="edgeLabel;html=1;align=center;verticalAlign=middle;resizable=0;points=[];fontSize=9;fontColor=#808080;" vertex="1" connectable="0" parent="TnzbvpmYRHqeSD8uyRUV-699">
          <mxGeometry x="0.3121" y="1" relative="1" as="geometry">
            <mxPoint x="-4" y="10" as="offset" />
          </mxGeometry>
        </mxCell>
        <mxCell id="TnzbvpmYRHqeSD8uyRUV-705" value="&lt;font color=&quot;#000000&quot; style=&quot;font-size: 19px;&quot;&gt;Hosting - name&lt;/font&gt;" style="sketch=0;points=[[0,0,0],[0.25,0,0],[0.5,0,0],[0.75,0,0],[1,0,0],[1,0.25,0],[1,0.5,0],[1,0.75,0],[1,1,0],[0.75,1,0],[0.5,1,0],[0.25,1,0],[0,1,0],[0,0.75,0],[0,0.5,0],[0,0.25,0]];rounded=1;absoluteArcSize=1;arcSize=2;html=1;strokeColor=none;gradientColor=none;shadow=0;dashed=0;fontSize=12;fontColor=#9E9E9E;align=left;verticalAlign=top;spacing=10;spacingTop=-4;fillColor=#FFF8E1;" vertex="1" parent="1">
          <mxGeometry x="-100" y="190" width="360" height="300" as="geometry" />
        </mxCell>
        <mxCell id="TnzbvpmYRHqeSD8uyRUV-706" style="edgeStyle=orthogonalEdgeStyle;rounded=0;html=1;labelBackgroundColor=none;startArrow=blockThin;startFill=1;endArrow=blockThin;endFill=1;jettySize=auto;orthogonalLoop=1;strokeColor=#4D4D4D;strokeWidth=1;fontSize=10;fontColor=#999999;align=center;dashed=0;endSize=4;startSize=4;" edge="1" parent="1" source="TnzbvpmYRHqeSD8uyRUV-707" target="TnzbvpmYRHqeSD8uyRUV-709">
          <mxGeometry relative="1" as="geometry" />
        </mxCell>
        <mxCell id="TnzbvpmYRHqeSD8uyRUV-707" value="Clients" style="strokeColor=#dddddd;fillColor=#ffffff;shadow=1;strokeWidth=1;rounded=1;absoluteArcSize=1;arcSize=2;labelPosition=center;verticalLabelPosition=middle;align=center;verticalAlign=bottom;spacingLeft=0;fontColor=#999999;fontSize=12;whiteSpace=wrap;spacingBottom=2;html=1;" vertex="1" parent="1">
          <mxGeometry x="-260" y="337.23" width="70" height="85" as="geometry" />
        </mxCell>
        <mxCell id="TnzbvpmYRHqeSD8uyRUV-708" value="" style="dashed=0;connectable=0;html=1;fillColor=#757575;strokeColor=none;shape=mxgraph.gcp2.laptop;part=1;" vertex="1" parent="TnzbvpmYRHqeSD8uyRUV-707">
          <mxGeometry x="0.5" width="50" height="33" relative="1" as="geometry">
            <mxPoint x="-25" y="18.5" as="offset" />
          </mxGeometry>
        </mxCell>
        <mxCell id="TnzbvpmYRHqeSD8uyRUV-713" style="edgeStyle=none;rounded=0;orthogonalLoop=1;jettySize=auto;html=1;exitX=1;exitY=0.5;exitDx=0;exitDy=0;fontSize=13;fontColor=#66B2FF;startArrow=classicThin;startFill=1;endArrow=classicThin;endFill=1;strokeColor=#4D4D4D;strokeWidth=1;" edge="1" parent="1" source="TnzbvpmYRHqeSD8uyRUV-709" target="TnzbvpmYRHqeSD8uyRUV-658">
          <mxGeometry relative="1" as="geometry" />
        </mxCell>
        <mxCell id="TnzbvpmYRHqeSD8uyRUV-715" value="https" style="edgeLabel;html=1;align=center;verticalAlign=middle;resizable=0;points=[];fontSize=16;fontColor=#336600;" vertex="1" connectable="0" parent="TnzbvpmYRHqeSD8uyRUV-713">
          <mxGeometry x="0.26" y="-1" relative="1" as="geometry">
            <mxPoint as="offset" />
          </mxGeometry>
        </mxCell>
        <mxCell id="TnzbvpmYRHqeSD8uyRUV-709" value="" style="strokeColor=#dddddd;fillColor=#ffffff;shadow=1;strokeWidth=1;rounded=1;absoluteArcSize=1;arcSize=2;fontSize=10;fontColor=#999999;align=left;html=1;" vertex="1" parent="1">
          <mxGeometry x="-60" y="346" width="230" height="67.47" as="geometry" />
        </mxCell>
        <mxCell id="TnzbvpmYRHqeSD8uyRUV-710" value="Frontend lk.&lt;br&gt;svelte" style="dashed=0;connectable=0;html=1;fillColor=#757575;strokeColor=none;shape=mxgraph.gcp2.frontend_platform_services;part=1;labelPosition=right;verticalLabelPosition=middle;align=left;verticalAlign=middle;spacingLeft=5;fontColor=#000000;fontSize=12;" vertex="1" parent="TnzbvpmYRHqeSD8uyRUV-709">
          <mxGeometry y="0.5" width="32" height="32" relative="1" as="geometry">
            <mxPoint x="5" y="-16" as="offset" />
          </mxGeometry>
        </mxCell>
        <mxCell id="TnzbvpmYRHqeSD8uyRUV-711" style="edgeStyle=none;rounded=0;orthogonalLoop=1;jettySize=auto;html=1;exitX=0;exitY=0.75;exitDx=0;exitDy=0;entryX=0.5;entryY=1;entryDx=0;entryDy=0;entryPerimeter=0;fontSize=19;fontColor=#000000;startArrow=none;startFill=0;endArrow=classicThin;endFill=1;strokeColor=#333333;strokeWidth=1;fillColor=#ffcc99;" edge="1" parent="1" source="TnzbvpmYRHqeSD8uyRUV-669" target="TnzbvpmYRHqeSD8uyRUV-705">
          <mxGeometry relative="1" as="geometry">
            <Array as="points">
              <mxPoint x="80" y="641" />
            </Array>
          </mxGeometry>
        </mxCell>
        <mxCell id="TnzbvpmYRHqeSD8uyRUV-712" value="&lt;font style=&quot;font-size: 13px;&quot; color=&quot;#66b2ff&quot;&gt;SMTP.server&lt;/font&gt;" style="sketch=0;html=1;verticalAlign=top;labelPosition=center;verticalLabelPosition=bottom;align=center;spacingTop=-6;fontSize=11;fontStyle=1;fontColor=#999999;shape=image;aspect=fixed;imageAspect=0;image=data:image/svg+xml,PHN2ZyB4bWxucz0iaHR0cDovL3d3dy53My5vcmcvMjAwMC9zdmciIHhtbG5zOnY9Imh0dHBzOi8vdmVjdGEuaW8vbmFubyIgd2lkdGg9IjIwIiBoZWlnaHQ9IjEzLjUxOTk5OTUwNDA4OTM1NSIgdmlld0JveD0iMCAtMi4wNjA1NzM0NTA4OTU1MTA2ZS0xNSAyMCAxMy41MTk5OTk1MDQwODkzNTUiPiYjeGE7CTxzdHlsZSB0eXBlPSJ0ZXh0L2NzcyI+JiN4YTsJLnN0MHtmaWxsOiM0Mjg1ZjQ7fSYjeGE7CS5zdDF7ZmlsbDojNjY5ZGY2O30mI3hhOwkuc3Qye2ZpbGw6I2FlY2JmYTt9JiN4YTsJPC9zdHlsZT4mI3hhOwk8cGF0aCBjbGFzcz0ic3QwIiBkPSJNOS4xOSAxLjYyaDEuNjJ2MTAuMjdIOS4xOXoiLz4mI3hhOwk8cGF0aCBjbGFzcz0ic3QxIiBkPSJNMCA1Ljk1aDIuN3YxLjYySDB6Ii8+JiN4YTsJPHJlY3QgY2xhc3M9InN0MCIgeD0iMi40MyIgeT0iMy41MiIgd2lkdGg9IjQuODYiIGhlaWdodD0iNi40OSIgcng9Ii4yNCIvPiYjeGE7CTxnIGNsYXNzPSJzdDEiPiYjeGE7CQk8cGF0aCBkPSJNOS4xOSAxLjYyaDEuNjJ2MTAuMjdIOS4xOXptOC4xMSA0LjMzSDIwdjEuNjJoLTIuN3oiLz4mI3hhOwkJPHBhdGggZD0iTTQuNTkgMTEuOXYxLjMzYS4yOS4yOSAwIDAgMCAuMjkuMjloMTAuMjRhLjI5LjI5IDAgMCAwIC4yOS0uMjloMFYxMS45ek0xNS4xMiAwSDQuODhhLjI5LjI5IDAgMCAwLS4yOS4yOWgwdjEuMzNoMTAuODJWLjI5YS4yOS4yOSAwIDAgMC0uMjktLjI5eiIvPiYjeGE7CTwvZz4mI3hhOwk8cmVjdCBjbGFzcz0ic3QwIiB4PSIxMi43IiB5PSIzLjUyIiB3aWR0aD0iNC44NiIgaGVpZ2h0PSI2LjQ5IiByeD0iLjI0Ii8+JiN4YTs8L3N2Zz4=;shadow=1;strokeColor=#808080;" vertex="1" parent="1">
          <mxGeometry x="59" y="450" width="42" height="29" as="geometry" />
        </mxCell>
        <mxCell id="TnzbvpmYRHqeSD8uyRUV-714" value="Hoster" style="fillColor=#4DA1F5;strokeColor=none;shadow=1;gradientColor=none;fontSize=14;align=left;spacingLeft=50;fontColor=#ffffff;html=1;" vertex="1" parent="1">
          <mxGeometry x="-100" y="150" width="360" height="40" as="geometry" />
        </mxCell>
      </root>
    </mxGraphModel>
  </diagram>
</mxfile>
